<svg width="1200" height="600" viewBox="0 0 1200 600" fill="none" xmlns="http://www.w3.org/2000/svg">
<g clip-path="url(#clip0_164_6)">
<rect width="1200" height="600" fill="white"/>
<rect width="1200" height="86" fill="#FF0000"/>
<rect y="514" width="1200" height="86" fill="#FF0000"/>
<path d="M11.5057 540.364V542.92H0.920455V540.364H11.5057ZM4.09091 560V537.653C4.09091 536.528 4.35511 535.591 4.88352 534.841C5.41193 534.091 6.09801 533.528 6.94176 533.153C7.78551 532.778 8.67614 532.591 9.61364 532.591C10.3551 532.591 10.9602 532.651 11.429 532.77C11.8977 532.889 12.2472 533 12.4773 533.102L11.608 535.71C11.4545 535.659 11.2415 535.595 10.9688 535.518C10.7045 535.442 10.3551 535.403 9.92045 535.403C8.9233 535.403 8.20313 535.655 7.75994 536.158C7.32528 536.661 7.10795 537.398 7.10795 538.369V560H4.09091ZM22.9027 560.409C21.13 560.409 19.5746 559.987 18.2365 559.143C16.907 558.3 15.8672 557.119 15.1172 555.602C14.3757 554.085 14.005 552.312 14.005 550.284C14.005 548.239 14.3757 546.453 15.1172 544.928C15.8672 543.402 16.907 542.217 18.2365 541.374C19.5746 540.53 21.13 540.108 22.9027 540.108C24.6754 540.108 26.2266 540.53 27.5561 541.374C28.8942 542.217 29.9339 543.402 30.6754 544.928C31.4254 546.453 31.8004 548.239 31.8004 550.284C31.8004 552.312 31.4254 554.085 30.6754 555.602C29.9339 557.119 28.8942 558.3 27.5561 559.143C26.2266 559.987 24.6754 560.409 22.9027 560.409ZM22.9027 557.699C24.2493 557.699 25.3572 557.354 26.2266 556.663C27.0959 555.973 27.7393 555.065 28.157 553.94C28.5746 552.815 28.7834 551.597 28.7834 550.284C28.7834 548.972 28.5746 547.749 28.157 546.615C27.7393 545.482 27.0959 544.565 26.2266 543.866C25.3572 543.168 24.2493 542.818 22.9027 542.818C21.5561 542.818 20.4482 543.168 19.5788 543.866C18.7095 544.565 18.0661 545.482 17.6484 546.615C17.2308 547.749 17.022 548.972 17.022 550.284C17.022 551.597 17.2308 552.815 17.6484 553.94C18.0661 555.065 18.7095 555.973 19.5788 556.663C20.4482 557.354 21.5561 557.699 22.9027 557.699ZM44.3832 560.409C42.6104 560.409 41.055 559.987 39.717 559.143C38.3874 558.3 37.3477 557.119 36.5977 555.602C35.8562 554.085 35.4854 552.312 35.4854 550.284C35.4854 548.239 35.8562 546.453 36.5977 544.928C37.3477 543.402 38.3874 542.217 39.717 541.374C41.055 540.53 42.6104 540.108 44.3832 540.108C46.1559 540.108 47.707 540.53 49.0366 541.374C50.3746 542.217 51.4144 543.402 52.1559 544.928C52.9059 546.453 53.2809 548.239 53.2809 550.284C53.2809 552.312 52.9059 554.085 52.1559 555.602C51.4144 557.119 50.3746 558.3 49.0366 559.143C47.707 559.987 46.1559 560.409 44.3832 560.409ZM44.3832 557.699C45.7298 557.699 46.8377 557.354 47.707 556.663C48.5763 555.973 49.2198 555.065 49.6374 553.94C50.055 552.815 50.2639 551.597 50.2639 550.284C50.2639 548.972 50.055 547.749 49.6374 546.615C49.2198 545.482 48.5763 544.565 47.707 543.866C46.8377 543.168 45.7298 542.818 44.3832 542.818C43.0366 542.818 41.9286 543.168 41.0593 543.866C40.19 544.565 39.5465 545.482 39.1289 546.615C38.7113 547.749 38.5025 548.972 38.5025 550.284C38.5025 551.597 38.7113 552.815 39.1289 553.94C39.5465 555.065 40.19 555.973 41.0593 556.663C41.9286 557.354 43.0366 557.699 44.3832 557.699ZM66.4261 540.364V542.92H56.25V540.364H66.4261ZM59.2159 535.659H62.233V554.375C62.233 555.227 62.3565 555.866 62.6037 556.293C62.8594 556.71 63.1832 556.991 63.5753 557.136C63.9759 557.273 64.3977 557.341 64.8409 557.341C65.1733 557.341 65.446 557.324 65.6591 557.29C65.8722 557.247 66.0426 557.213 66.1705 557.188L66.7841 559.898C66.5795 559.974 66.294 560.051 65.9276 560.128C65.5611 560.213 65.0966 560.256 64.5341 560.256C63.6818 560.256 62.8466 560.072 62.0284 559.706C61.2188 559.339 60.5455 558.781 60.0085 558.031C59.4801 557.281 59.2159 556.335 59.2159 555.193V535.659ZM78.9865 560.409C77.0945 560.409 75.4624 559.991 74.0902 559.156C72.7266 558.312 71.674 557.136 70.9325 555.628C70.1996 554.111 69.8331 552.347 69.8331 550.335C69.8331 548.324 70.1996 546.551 70.9325 545.017C71.674 543.474 72.7053 542.273 74.0263 541.412C75.3558 540.543 76.907 540.108 78.6797 540.108C79.7024 540.108 80.7124 540.278 81.7095 540.619C82.7067 540.96 83.6143 541.514 84.4325 542.281C85.2507 543.04 85.9027 544.045 86.3885 545.298C86.8743 546.551 87.1172 548.094 87.1172 549.926V551.205H71.9808V548.597H84.049C84.049 547.489 83.8274 546.5 83.3842 545.631C82.9496 544.761 82.3274 544.075 81.5178 543.572C80.7166 543.07 79.7706 542.818 78.6797 542.818C77.478 542.818 76.4382 543.116 75.5604 543.713C74.6911 544.301 74.022 545.068 73.5533 546.014C73.0845 546.96 72.8501 547.974 72.8501 549.057V550.795C72.8501 552.278 73.1058 553.536 73.6172 554.567C74.1371 555.589 74.8572 556.369 75.7777 556.906C76.6982 557.435 77.7678 557.699 78.9865 557.699C79.7791 557.699 80.495 557.588 81.1342 557.366C81.782 557.136 82.3402 556.795 82.8089 556.344C83.2777 555.884 83.6399 555.312 83.8956 554.631L86.8104 555.449C86.5036 556.438 85.9879 557.307 85.2635 558.057C84.5391 558.798 83.6442 559.378 82.5788 559.795C81.5135 560.205 80.3161 560.409 78.9865 560.409ZM91.7067 560V540.364H94.6214V543.33H94.826C95.1839 542.358 95.8317 541.57 96.7692 540.964C97.7067 540.359 98.7635 540.057 99.9396 540.057C100.161 540.057 100.438 540.061 100.771 540.07C101.103 540.078 101.354 540.091 101.525 540.108V543.176C101.423 543.151 101.188 543.112 100.822 543.061C100.464 543.001 100.085 542.972 99.6839 542.972C98.7294 542.972 97.8771 543.172 97.1271 543.572C96.3857 543.964 95.7976 544.51 95.3629 545.209C94.9368 545.899 94.7237 546.687 94.7237 547.574V560H91.7067Z" fill="black"/>
<path d="M20.7784 57.1875V69H17.7614V42.8182H20.7784V52.4318H21.0341C21.4943 51.4176 22.1847 50.6122 23.1051 50.0156C24.0341 49.4105 25.2699 49.108 26.8125 49.108C28.1506 49.108 29.3224 49.3764 30.3281 49.9134C31.3338 50.4418 32.1136 51.2557 32.6676 52.3551C33.2301 53.446 33.5114 54.8352 33.5114 56.5227V69H30.4943V56.7273C30.4943 55.1676 30.0895 53.9616 29.2798 53.1094C28.4787 52.2486 27.3665 51.8182 25.9432 51.8182C24.9545 51.8182 24.0682 52.027 23.2841 52.4446C22.5085 52.8622 21.8949 53.4716 21.4432 54.2727C21 55.0739 20.7784 56.0455 20.7784 57.1875ZM47.2639 69.4091C45.3718 69.4091 43.7397 68.9915 42.3675 68.1562C41.0039 67.3125 39.9513 66.1364 39.2099 64.6278C38.4769 63.1108 38.1104 61.3466 38.1104 59.3352C38.1104 57.3239 38.4769 55.5511 39.2099 54.017C39.9513 52.4744 40.9826 51.2727 42.3036 50.4119C43.6332 49.5426 45.1843 49.108 46.957 49.108C47.9798 49.108 48.9897 49.2784 49.9869 49.6193C50.984 49.9602 51.8917 50.5142 52.7099 51.2812C53.5281 52.0398 54.18 53.0455 54.6658 54.2983C55.1516 55.5511 55.3945 57.0937 55.3945 58.9261V60.2045H40.2582V57.5966H52.3264C52.3264 56.4886 52.1048 55.5 51.6616 54.6307C51.2269 53.7614 50.6048 53.0753 49.7951 52.5724C48.994 52.0696 48.0479 51.8182 46.957 51.8182C45.7553 51.8182 44.7156 52.1165 43.8377 52.7131C42.9684 53.3011 42.2994 54.0682 41.8306 55.0142C41.3619 55.9602 41.1275 56.9744 41.1275 58.0568V59.7955C41.1275 61.2784 41.3832 62.5355 41.8945 63.5668C42.4144 64.5895 43.1346 65.3693 44.055 65.9062C44.9755 66.4347 46.0451 66.6989 47.2639 66.6989C48.0565 66.6989 48.7724 66.5881 49.4116 66.3665C50.0593 66.1364 50.6175 65.7955 51.0863 65.3438C51.555 64.8835 51.9173 64.3125 52.1729 63.6307L55.0877 64.4489C54.7809 65.4375 54.2653 66.3068 53.5408 67.0568C52.8164 67.7983 51.9215 68.3778 50.8562 68.7955C49.7908 69.2045 48.5934 69.4091 47.2639 69.4091ZM65.7624 69.4602C64.5181 69.4602 63.3888 69.2259 62.3746 68.7571C61.3604 68.2798 60.555 67.5938 59.9585 66.6989C59.3619 65.7955 59.0636 64.7045 59.0636 63.4261C59.0636 62.3011 59.2852 61.3892 59.7283 60.6903C60.1715 59.983 60.7638 59.429 61.5053 59.0284C62.2468 58.6278 63.065 58.3295 63.9599 58.1335C64.8633 57.929 65.771 57.767 66.6829 57.6477C67.8761 57.4943 68.8434 57.3793 69.5849 57.3026C70.3349 57.2173 70.8803 57.0767 71.2212 56.8807C71.5707 56.6847 71.7454 56.3437 71.7454 55.858V55.7557C71.7454 54.4943 71.4002 53.5142 70.7099 52.8153C70.0281 52.1165 68.9925 51.767 67.6033 51.767C66.163 51.767 65.0337 52.0824 64.2156 52.7131C63.3974 53.3437 62.8221 54.017 62.4897 54.733L59.6261 53.7102C60.1374 52.517 60.8192 51.5881 61.6715 50.9233C62.5323 50.25 63.4698 49.7812 64.484 49.517C65.5067 49.2443 66.5124 49.108 67.5011 49.108C68.1317 49.108 68.8562 49.1847 69.6744 49.3381C70.5011 49.483 71.2979 49.7855 72.065 50.2457C72.8406 50.706 73.484 51.4006 73.9954 52.3295C74.5067 53.2585 74.7624 54.5028 74.7624 56.0625V69H71.7454V66.3409H71.592C71.3874 66.767 71.0465 67.223 70.5692 67.7088C70.092 68.1946 69.457 68.608 68.6644 68.9489C67.8718 69.2898 66.9045 69.4602 65.7624 69.4602ZM66.2227 66.75C67.4158 66.75 68.4215 66.5156 69.2397 66.0469C70.0664 65.5781 70.6886 64.973 71.1062 64.2315C71.5323 63.4901 71.7454 62.7102 71.7454 61.892V59.1307C71.6175 59.2841 71.3363 59.4247 70.9016 59.5526C70.4755 59.6719 69.9812 59.7784 69.4187 59.8722C68.8647 59.9574 68.3235 60.0341 67.7951 60.1023C67.2752 60.1619 66.8533 60.2131 66.5295 60.2557C65.7454 60.358 65.0124 60.5241 64.3306 60.7543C63.6573 60.9759 63.1119 61.3125 62.6942 61.7642C62.2852 62.2074 62.0806 62.8125 62.0806 63.5795C62.0806 64.6278 62.4684 65.4205 63.244 65.9574C64.0281 66.4858 65.021 66.75 66.2227 66.75ZM87.6839 69.4091C86.0476 69.4091 84.603 68.9957 83.3501 68.169C82.0973 67.3338 81.1172 66.1577 80.4098 64.6406C79.7024 63.1151 79.3487 61.3125 79.3487 59.233C79.3487 57.1705 79.7024 55.3807 80.4098 53.8636C81.1172 52.3466 82.1016 51.1747 83.3629 50.348C84.6243 49.5213 86.0817 49.108 87.7351 49.108C89.0135 49.108 90.0234 49.321 90.7649 49.7472C91.5149 50.1648 92.0859 50.642 92.478 51.179C92.8786 51.7074 93.1896 52.142 93.4112 52.483H93.6669V42.8182H96.684V69H93.7692V65.983H93.4112C93.1896 66.3409 92.8743 66.7926 92.4652 67.3381C92.0561 67.875 91.4723 68.3565 90.7138 68.7827C89.9553 69.2003 88.9453 69.4091 87.6839 69.4091ZM88.093 66.6989C89.3033 66.6989 90.326 66.3835 91.1612 65.7528C91.9964 65.1136 92.6314 64.2315 93.0661 63.1065C93.5007 61.973 93.718 60.6648 93.718 59.1818C93.718 57.7159 93.505 56.4332 93.0788 55.3338C92.6527 54.2259 92.022 53.3651 91.1868 52.7514C90.3516 52.1293 89.3203 51.8182 88.093 51.8182C86.8146 51.8182 85.7493 52.1463 84.897 52.8026C84.0533 53.4503 83.4183 54.3324 82.9922 55.4489C82.5746 56.5568 82.3658 57.8011 82.3658 59.1818C82.3658 60.5795 82.5788 61.8494 83.005 62.9915C83.4396 64.125 84.0788 65.0284 84.9226 65.7017C85.7749 66.3665 86.8317 66.6989 88.093 66.6989ZM110.862 69.4091C108.969 69.4091 107.337 68.9915 105.965 68.1562C104.602 67.3125 103.549 66.1364 102.808 64.6278C102.075 63.1108 101.708 61.3466 101.708 59.3352C101.708 57.3239 102.075 55.5511 102.808 54.017C103.549 52.4744 104.58 51.2727 105.901 50.4119C107.231 49.5426 108.782 49.108 110.555 49.108C111.577 49.108 112.587 49.2784 113.585 49.6193C114.582 49.9602 115.489 50.5142 116.308 51.2812C117.126 52.0398 117.778 53.0455 118.263 54.2983C118.749 55.5511 118.992 57.0937 118.992 58.9261V60.2045H103.856V57.5966H115.924C115.924 56.4886 115.702 55.5 115.259 54.6307C114.825 53.7614 114.202 53.0753 113.393 52.5724C112.592 52.0696 111.646 51.8182 110.555 51.8182C109.353 51.8182 108.313 52.1165 107.435 52.7131C106.566 53.3011 105.897 54.0682 105.428 55.0142C104.96 55.9602 104.725 56.9744 104.725 58.0568V59.7955C104.725 61.2784 104.981 62.5355 105.492 63.5668C106.012 64.5895 106.732 65.3693 107.653 65.9062C108.573 66.4347 109.643 66.6989 110.862 66.6989C111.654 66.6989 112.37 66.5881 113.009 66.3665C113.657 66.1364 114.215 65.7955 114.684 65.3438C115.153 64.8835 115.515 64.3125 115.771 63.6307L118.685 64.4489C118.379 65.4375 117.863 66.3068 117.138 67.0568C116.414 67.7983 115.519 68.3778 114.454 68.7955C113.388 69.2045 112.191 69.4091 110.862 69.4091ZM123.582 69V49.3636H126.496V52.3295H126.701C127.059 51.358 127.707 50.5696 128.644 49.9645C129.582 49.3594 130.638 49.0568 131.815 49.0568C132.036 49.0568 132.313 49.0611 132.646 49.0696C132.978 49.0781 133.229 49.0909 133.4 49.108V52.1761C133.298 52.1506 133.063 52.1122 132.697 52.0611C132.339 52.0014 131.96 51.9716 131.559 51.9716C130.604 51.9716 129.752 52.1719 129.002 52.5724C128.261 52.9645 127.673 53.5099 127.238 54.2088C126.812 54.8991 126.599 55.6875 126.599 56.5739V69H123.582Z" fill="black"/>
<rect x="230" width="697" height="86" fill="#D9D9D9"/>
<path d="M260.455 57V39.5455H263.045V42.2727H263.273C263.636 41.3409 264.223 40.6174 265.034 40.1023C265.845 39.5795 266.818 39.3182 267.955 39.3182C269.106 39.3182 270.064 39.5795 270.83 40.1023C271.602 40.6174 272.205 41.3409 272.636 42.2727H272.818C273.265 41.3712 273.936 40.6553 274.83 40.125C275.723 39.5871 276.795 39.3182 278.045 39.3182C279.606 39.3182 280.883 39.8068 281.875 40.7841C282.867 41.7538 283.364 43.2652 283.364 45.3182V57H280.682V45.3182C280.682 44.0303 280.33 43.1098 279.625 42.5568C278.92 42.0038 278.091 41.7273 277.136 41.7273C275.909 41.7273 274.958 42.0985 274.284 42.8409C273.61 43.5758 273.273 44.5076 273.273 45.6364V57H270.545V45.0455C270.545 44.053 270.223 43.2538 269.58 42.6477C268.936 42.0341 268.106 41.7273 267.091 41.7273C266.394 41.7273 265.742 41.9129 265.136 42.2841C264.538 42.6553 264.053 43.1705 263.682 43.8295C263.318 44.4811 263.136 45.2348 263.136 46.0909V57H260.455ZM295.585 57.3636C293.903 57.3636 292.453 56.9924 291.233 56.25C290.021 55.5 289.085 54.4545 288.426 53.1136C287.775 51.7652 287.449 50.197 287.449 48.4091C287.449 46.6212 287.775 45.0455 288.426 43.6818C289.085 42.3106 290.002 41.2424 291.176 40.4773C292.358 39.7045 293.737 39.3182 295.312 39.3182C296.222 39.3182 297.119 39.4697 298.006 39.7727C298.892 40.0758 299.699 40.5682 300.426 41.25C301.153 41.9242 301.733 42.8182 302.165 43.9318C302.597 45.0455 302.812 46.4167 302.812 48.0455V49.1818H289.358V46.8636H300.085C300.085 45.8788 299.888 45 299.494 44.2273C299.108 43.4545 298.555 42.8447 297.835 42.3977C297.123 41.9508 296.282 41.7273 295.312 41.7273C294.244 41.7273 293.32 41.9924 292.54 42.5227C291.767 43.0455 291.172 43.7273 290.756 44.5682C290.339 45.4091 290.131 46.3106 290.131 47.2727V48.8182C290.131 50.1364 290.358 51.2538 290.812 52.1705C291.275 53.0795 291.915 53.7727 292.733 54.25C293.551 54.7197 294.502 54.9545 295.585 54.9545C296.29 54.9545 296.926 54.8561 297.494 54.6591C298.07 54.4545 298.566 54.1515 298.983 53.75C299.4 53.3409 299.722 52.8333 299.949 52.2273L302.54 52.9545C302.267 53.8333 301.809 54.6061 301.165 55.2727C300.521 55.9318 299.725 56.447 298.778 56.8182C297.831 57.1818 296.767 57.3636 295.585 57.3636ZM309.574 46.5V57H306.892V39.5455H309.483V42.2727H309.71C310.119 41.3864 310.741 40.6742 311.574 40.1364C312.407 39.5909 313.483 39.3182 314.801 39.3182C315.983 39.3182 317.017 39.5606 317.903 40.0455C318.79 40.5227 319.479 41.25 319.972 42.2273C320.464 43.197 320.71 44.4242 320.71 45.9091V57H318.028V46.0909C318.028 44.7197 317.672 43.6515 316.96 42.8864C316.248 42.1136 315.271 41.7273 314.028 41.7273C313.172 41.7273 312.407 41.9129 311.733 42.2841C311.066 42.6553 310.54 43.197 310.153 43.9091C309.767 44.6212 309.574 45.4848 309.574 46.5ZM336.611 49.8636V39.5455H339.293V57H336.611V54.0455H336.429C336.02 54.9318 335.384 55.6856 334.52 56.3068C333.656 56.9205 332.565 57.2273 331.247 57.2273C330.156 57.2273 329.187 56.9886 328.338 56.5114C327.49 56.0265 326.823 55.2992 326.338 54.3295C325.853 53.3523 325.611 52.1212 325.611 50.6364V39.5455H328.293V50.4545C328.293 51.7273 328.649 52.7424 329.361 53.5C330.08 54.2576 330.997 54.6364 332.111 54.6364C332.777 54.6364 333.455 54.4659 334.145 54.125C334.842 53.7841 335.425 53.2614 335.895 52.5568C336.372 51.8523 336.611 50.9545 336.611 49.8636Z" fill="black"/>
<rect x="81" y="85" width="995" height="429" fill="#D9D9D9"/>
<path d="M143.352 268.318C141.92 268.318 140.688 267.98 139.653 267.304C138.619 266.628 137.824 265.696 137.267 264.51C136.71 263.323 136.432 261.968 136.432 260.443C136.432 258.892 136.717 257.523 137.287 256.337C137.864 255.143 138.666 254.212 139.693 253.543C140.727 252.866 141.934 252.528 143.312 252.528C144.386 252.528 145.354 252.727 146.216 253.125C147.078 253.523 147.784 254.08 148.334 254.795C148.884 255.511 149.225 256.347 149.358 257.301H147.011C146.832 256.605 146.435 255.989 145.818 255.452C145.208 254.908 144.386 254.636 143.352 254.636C142.438 254.636 141.635 254.875 140.946 255.352C140.263 255.823 139.73 256.489 139.345 257.351C138.967 258.206 138.778 259.21 138.778 260.364C138.778 261.544 138.964 262.571 139.335 263.446C139.713 264.321 140.243 265 140.926 265.484C141.616 265.968 142.424 266.21 143.352 266.21C143.962 266.21 144.516 266.104 145.013 265.892C145.51 265.68 145.931 265.375 146.276 264.977C146.62 264.58 146.866 264.102 147.011 263.545H149.358C149.225 264.447 148.897 265.259 148.374 265.982C147.857 266.697 147.17 267.268 146.315 267.692C145.467 268.109 144.479 268.318 143.352 268.318ZM158.993 268.318C157.614 268.318 156.404 267.99 155.364 267.334C154.33 266.678 153.521 265.759 152.938 264.58C152.361 263.4 152.072 262.021 152.072 260.443C152.072 258.852 152.361 257.464 152.938 256.277C153.521 255.09 154.33 254.169 155.364 253.513C156.404 252.857 157.614 252.528 158.993 252.528C160.372 252.528 161.578 252.857 162.612 253.513C163.653 254.169 164.462 255.09 165.038 256.277C165.622 257.464 165.913 258.852 165.913 260.443C165.913 262.021 165.622 263.4 165.038 264.58C164.462 265.759 163.653 266.678 162.612 267.334C161.578 267.99 160.372 268.318 158.993 268.318ZM158.993 266.21C160.04 266.21 160.902 265.942 161.578 265.405C162.254 264.868 162.755 264.162 163.08 263.287C163.404 262.412 163.567 261.464 163.567 260.443C163.567 259.422 163.404 258.471 163.08 257.589C162.755 256.708 162.254 255.995 161.578 255.452C160.902 254.908 160.04 254.636 158.993 254.636C157.946 254.636 157.084 254.908 156.408 255.452C155.732 255.995 155.231 256.708 154.906 257.589C154.581 258.471 154.419 259.422 154.419 260.443C154.419 261.464 154.581 262.412 154.906 263.287C155.231 264.162 155.732 264.868 156.408 265.405C157.084 265.942 157.946 266.21 158.993 266.21ZM171.842 258.812V268H169.495V252.727H171.762V255.114H171.961C172.319 254.338 172.863 253.715 173.592 253.244C174.321 252.767 175.262 252.528 176.416 252.528C177.45 252.528 178.355 252.741 179.13 253.165C179.906 253.582 180.509 254.219 180.94 255.074C181.371 255.922 181.586 256.996 181.586 258.295V268H179.24V258.455C179.24 257.255 178.928 256.32 178.305 255.651C177.682 254.974 176.827 254.636 175.74 254.636C174.991 254.636 174.321 254.799 173.731 255.124C173.148 255.448 172.687 255.922 172.349 256.545C172.011 257.169 171.842 257.924 171.842 258.812ZM192.516 252.727V254.716H184.602V252.727H192.516ZM186.908 249.068H189.255V263.625C189.255 264.288 189.351 264.785 189.543 265.116C189.742 265.441 189.994 265.66 190.299 265.773C190.611 265.879 190.939 265.932 191.283 265.932C191.542 265.932 191.754 265.919 191.92 265.892C192.085 265.859 192.218 265.832 192.317 265.812L192.795 267.92C192.636 267.98 192.414 268.04 192.129 268.099C191.844 268.166 191.482 268.199 191.045 268.199C190.382 268.199 189.732 268.056 189.096 267.771C188.466 267.486 187.942 267.052 187.525 266.469C187.114 265.885 186.908 265.15 186.908 264.261V249.068ZM202.286 268.318C200.814 268.318 199.545 267.993 198.477 267.344C197.417 266.688 196.598 265.773 196.021 264.599C195.451 263.42 195.166 262.047 195.166 260.483C195.166 258.919 195.451 257.54 196.021 256.347C196.598 255.147 197.4 254.212 198.428 253.543C199.462 252.866 200.668 252.528 202.047 252.528C202.842 252.528 203.628 252.661 204.403 252.926C205.179 253.191 205.885 253.622 206.521 254.219C207.158 254.809 207.665 255.591 208.043 256.565C208.42 257.54 208.609 258.74 208.609 260.165V261.159H196.837V259.131H206.223C206.223 258.269 206.051 257.5 205.706 256.824C205.368 256.148 204.884 255.614 204.254 255.223C203.631 254.832 202.895 254.636 202.047 254.636C201.112 254.636 200.304 254.868 199.621 255.332C198.945 255.79 198.424 256.386 198.06 257.122C197.695 257.858 197.513 258.647 197.513 259.489V260.841C197.513 261.994 197.712 262.972 198.109 263.774C198.514 264.57 199.074 265.176 199.79 265.594C200.506 266.005 201.338 266.21 202.286 266.21C202.902 266.21 203.459 266.124 203.956 265.952C204.46 265.773 204.894 265.508 205.259 265.156C205.623 264.798 205.905 264.354 206.104 263.824L208.371 264.46C208.132 265.229 207.731 265.905 207.168 266.489C206.604 267.065 205.908 267.516 205.08 267.841C204.251 268.159 203.32 268.318 202.286 268.318ZM214.526 258.812V268H212.179V252.727H214.446V255.114H214.645C215.003 254.338 215.546 253.715 216.276 253.244C217.005 252.767 217.946 252.528 219.099 252.528C220.134 252.528 221.038 252.741 221.814 253.165C222.589 253.582 223.193 254.219 223.624 255.074C224.054 255.922 224.27 256.996 224.27 258.295V268H221.923V258.455C221.923 257.255 221.612 256.32 220.989 255.651C220.366 254.974 219.51 254.636 218.423 254.636C217.674 254.636 217.005 254.799 216.415 255.124C215.831 255.448 215.371 255.922 215.033 256.545C214.695 257.169 214.526 257.924 214.526 258.812ZM235.2 252.727V254.716H227.285V252.727H235.2ZM229.592 249.068H231.939V263.625C231.939 264.288 232.035 264.785 232.227 265.116C232.426 265.441 232.678 265.66 232.983 265.773C233.294 265.879 233.622 265.932 233.967 265.932C234.225 265.932 234.438 265.919 234.603 265.892C234.769 265.859 234.902 265.832 235.001 265.812L235.478 267.92C235.319 267.98 235.097 268.04 234.812 268.099C234.527 268.166 234.166 268.199 233.728 268.199C233.065 268.199 232.416 268.056 231.779 267.771C231.15 267.486 230.626 267.052 230.208 266.469C229.797 265.885 229.592 265.15 229.592 264.261V249.068Z" fill="black"/>
<rect x="341" y="148" width="494" height="285" rx="98" fill="white"/>
</g>
<defs>
<clipPath id="clip0_164_6">
<rect width="1200" height="600" fill="white"/>
</clipPath>
</defs>
</svg>
